<svg height="692pt" viewBox="-62 -21 692 692.50148" width="692pt" xmlns="http://www.w3.org/2000/svg"><path d="m364.191406 296.015625c-11.269531 0-18.910156-7.691406-19.753906-8.578125-2.011719-2.121094-3.058594-4.949219-2.914062-7.863281l4.640624-92.1875c.296876-5.867188 5.347657-10.464844 11.164063-10.101563 5.863281.292969 10.386719 5.296875 10.097656 11.164063l-4.335937 86.128906c.394531.101563.679687.195313 1.226562.148437 1.117188-.039062 2.269532-.675781 3.320313-1.496093l10.25-72.792969c.824219-5.820312 6.046875-9.921875 12.03125-9.058594 5.820312.824219 9.871093 6.207032 9.046875 12.027344l-10.761719 76.390625c-.292969 2.082031-1.195313 4.035156-2.605469 5.601563-7.699218 8.628906-15.679687 10.539062-21.019531 10.617187-.121094 0-.257813 0-.386719 0zm0 0"/><path d="m345.90625 283.78125c-4.511719 0-9.242188-2.210938-14.136719-6.601562-10.5-9.429688-16.183593-23.316407-15.621093-38.09375l2.371093-62.617188c.21875-5.878906 5.027344-10.480469 11.03125-10.238281 5.875.222656 10.457031 5.164062 10.234375 11.03125l-2.375 62.628906c-.195312 5.160156.894532 10.082031 3.085938 14.320313l5.8125-62.160157c.550781-5.84375 5.511718-10.078125 11.589844-9.609375 5.851562.542969 10.152343 5.726563 9.617187 11.578125l-6.882813 74.21875c-1.296874 9.664063-6.117187 13.273438-9.9375 14.6875-1.566406.566407-3.160156.855469-4.789062.855469zm2.03125-20.941406"/><path d="m379.792969 466.878906h-42.925781c-5.882813 0-10.636719-4.769531-10.636719-10.644531v-31.53125h-31.929688c-5.886719 0-10.644531-4.757813-10.644531-10.636719v-42.980468c0-5.875 4.757812-10.640626 10.644531-10.640626h31.929688v-31.929687c0-5.875 4.753906-10.640625 10.636719-10.640625h42.925781c5.886719 0 10.644531 4.765625 10.644531 10.640625v31.929687h31.570312c5.886719 0 10.648438 4.765626 10.648438 10.640626v42.980468c0 5.878906-4.761719 10.636719-10.648438 10.636719h-31.570312v31.53125c0 5.875-4.757812 10.644531-10.644531 10.644531zm-32.277344-21.292968h21.640625v-31.519532c0-5.875 4.757812-10.644531 10.636719-10.644531h31.578125v-21.6875h-31.578125c-5.878907 0-10.640625-4.769531-10.640625-10.648437v-31.929688h-21.636719v31.929688c0 5.878906-4.765625 10.648437-10.648437 10.648437h-31.929688v21.6875h31.929688c5.882812 0 10.648437 4.769531 10.648437 10.644531zm0 0"/><path d="m103.394531 169.132812h-33.167969c-5.882812 0-10.648437-4.765624-10.648437-10.640624v-149.261719c0-5.886719 4.765625-10.644531 10.648437-10.644531h33.167969c5.878907 0 10.640625 4.757812 10.640625 10.644531v149.261719c0 5.875-4.761718 10.640624-10.640625 10.640624zm-22.523437-21.285156h11.875v-127.980468h-11.875zm0 0"/><path d="m70.226562 169.132812h-63.289062c-5.882812 0-10.636719-4.765624-10.636719-10.640624v-149.261719c0-5.886719 4.753907-10.644531 10.636719-10.644531h63.289062c5.878907 0 10.644532 4.757812 10.644532 10.644531v149.261719c0 5.875-4.765625 10.640624-10.644532 10.640624zm-52.644531-21.285156h41.996094v-127.980468h-41.996094zm0 0"/><path d="m388.328125 609.035156c-1.363281 0-2.738281-.253906-4.0625-.800781l-101.003906-41.765625c-5.433594-2.253906-8.019531-8.472656-5.769531-13.910156 2.246093-5.433594 8.484374-7.984375 13.898437-5.769532l83.945313 34.714844c-4.0625-8.792968-12.878907-22.675781-31.898438-43.121094-.003906 0-10.3125-9.964843-25.917969-21.003906-22.695312-16.039062-56.316406-34.253906-87.34375-29.976562-38.132812 5.246094-70.414062 17.882812-86.269531 24.957031-5.398438 2.375-11.660156-.03125-14.046875-5.390625-2.410156-5.375.015625-11.660156 5.375-14.054688 16.882813-7.53125 51.296875-20.988281 92.027344-26.605468 38.074219-5.226563 76.726562 15.445312 102.542969 33.6875 17.292968 12.21875 28.414062 23.070312 28.882812 23.535156 48.847656 52.515625 43.121094 74.0625 38.40625 80.898438-2.035156 2.957031-5.339844 4.605468-8.765625 4.605468zm0 0"/><path d="m326.859375 647.804688c-1.320313 0-2.628906-.242188-3.863281-.726563l-120.855469-47.167969-59.660156 16.96875c-5.59375 1.601563-11.539063-1.675781-13.148438-7.332031-1.601562-5.652344 1.679688-11.535156 7.328125-13.140625l63.097656-17.957031c2.261719-.625 4.628907-.511719 6.777344.324219l121.25 47.324218 209.203125-43.585937c-5.394531-4.382813-14.941406-8.699219-31.691406-8.75-32.285156.210937-81.710937 5.886719-103.472656 8.78125l-11.125 1.53125c-5.972657.753906-11.171875-3.253907-11.992188-9.042969-.824219-5.808594 3.195313-11.179688 8.996094-12.03125.738281-.109375 5.683594-.828125 13.363281-1.84375l90.097656-12.398438c-5.347656-5.421874-16.050781-10.78125-37.527343-9.222656l-89.574219 14.636719c-5.574219.914063-10.910156-2.703125-12.117188-8.222656-1.210937-5.523438 2.105469-11.03125 7.546876-12.539063 1.375-.382812 29.265624-8.039062 69.257812-12.804687-10.59375-7.417969-26.625-13.933594-47.550781-8.886719l-47.292969 11.460938c-5.699219 1.414062-11.464844-2.121094-12.851562-7.835938-1.378907-5.710938 2.125-11.472656 7.84375-12.851562l47.285156-11.457032c43.476562-10.554687 71.351562 15.585938 81.144531 27 46.214844-1.460937 57.226563 25.671875 59.625 35.082032 41.605469 4.695312 47.425781 33.433593 47.667969 34.753906 1.042968 5.6875-2.632813 11.167968-8.296875 12.351562l-227.292969 47.363282c-.714844.144531-1.445312.21875-2.171875.21875zm0 0"/><path d="m291.347656 307.335938c-2.371094 0-4.75-.789063-6.710937-2.386719l-88.453125-71.867188c-.621094-.511719-1.191406-1.082031-1.679688-1.71875-1.554687-1.984375-36.621094-47.308593-59.246094-95.398437h-31.863281c-5.886719 0-10.648437-4.769532-10.648437-10.648438v-93.972656c0-5.875 4.761718-10.648438 10.648437-10.648438h105.039063c1.003906 0 2.011718.148438 2.980468.429688 5.546876 1.621094 136.859376 40.773438 210.015626 136.425781.246093.316407.46875.636719.671874.988281 1.003907 1.667969 9.8125 17.207032 9.8125 46.941407 0 24.164062 0 69.148437-23.230468 87.292969-6.4375 5.011718-17.574219 10.117187-34.210938 5.949218-4.984375-1.25-8.367187-5.867187-8.046875-10.988281l5.078125-81.207031-70.144531-32.726563-28.386719 24.335938c2.015625 4.699219 6.882813 13.9375 18.402344 28.332031 19.167969 23.96875 35.535156 49.710938 7.496094 77.75-2.066406 2.066406-4.789063 3.117188-7.523438 3.117188zm-80.769531-89.976563 79.34375 64.464844c5.394531-8.886719 3.15625-19.148438-15.171875-42.058594-22.679688-28.34375-24.449219-41.875-24.449219-45.347656 0-3.105469 1.363281-6.054688 3.722657-8.078125l38.699218-33.171875c3.160156-2.71875 7.636719-3.320313 11.414063-1.558594l82.925781 38.695313c3.96875 1.851562 6.386719 5.933593 6.121094 10.308593l-4.882813 78.28125c3.523438-.367187 5.742188-1.707031 7.277344-2.898437 15.042969-11.75 15.042969-52.929688 15.042969-70.515625 0-21.328125-5.421875-33.308594-6.609375-35.660157-65.1875-84.640624-183.03125-123.421874-197.167969-127.839843h-92.808594v72.695312h28.066406c4.203126 0 8.011719 2.484375 9.722657 6.316407 19.675781 44.28125 53.414062 89.351562 58.753906 96.367187zm0 0"/><path d="m134.660156 637.164062h-95.789062c-5.886719 0-10.648438-4.769531-10.648438-10.648437v-149c0-5.875 4.761719-10.636719 10.648438-10.636719h95.789062c5.878906 0 10.636719 4.761719 10.636719 10.636719v149c0 5.878906-4.757813 10.648437-10.636719 10.648437zm-85.148437-21.289062h74.5v-127.710938h-74.5zm0 0"/></svg>