<?xml version="1.0" encoding="iso-8859-1"?>
<!-- Generator: Adobe Illustrator 19.0.0, SVG Export Plug-In . SVG Version: 6.00 Build 0)  -->
<svg xmlns="http://www.w3.org/2000/svg" xmlns:xlink="http://www.w3.org/1999/xlink" version="1.1" id="Capa_1" x="0px" y="0px" viewBox="0 0 512 512" style="enable-background:new 0 0 512 512;" xml:space="preserve" width="512" height="512">
<g>
	<path d="M440.774,134.333h-84.34v-33.899C356.435,45.055,311.379,0,256,0c-55.38,0-100.435,45.055-100.435,100.435v33.899h-84.34   L48.051,512h415.897L440.774,134.333z M185.565,213.333v-49h140.87v49h30v-49h56.124L432.051,482H79.949l19.492-317.667h56.124v49   H185.565z M185.565,100.435C185.565,61.597,217.162,30,256,30s70.435,31.597,70.435,70.435v33.899h-140.87V100.435z"/>
	<polygon points="225.597,421.524 319.656,283.78 286.401,283.78 192.341,421.524  "/>
	<path d="M205.525,358.555c20.858,0,36.601-13.774,36.601-38.372c0-24.4-15.742-38.371-36.601-38.371s-36.601,13.971-36.601,38.371   C168.925,344.78,184.667,358.555,205.525,358.555z M205.525,303.064c4.329,0,8.658,3.936,8.658,17.12   c0,13.184-4.329,17.12-8.658,17.12c-4.329,0-8.658-3.936-8.658-17.12C196.867,306.999,201.196,303.064,205.525,303.064z"/>
	<path d="M269.872,385.12c0,24.597,15.742,38.372,36.601,38.372s36.601-13.774,36.601-38.372c0-24.4-15.742-38.372-36.601-38.372   S269.872,360.72,269.872,385.12z M315.13,385.12c0,13.184-4.329,17.12-8.658,17.12s-8.658-3.936-8.658-17.12   c0-13.184,4.329-17.12,8.658-17.12S315.13,371.936,315.13,385.12z"/>
</g>















</svg>
